<svg id="Layer_1" data-name="Layer 1" xmlns="http://www.w3.org/2000/svg" viewBox="0 0 44 44"><defs><style>.cls-1{fill:none;}.cls-2{fill:#1d1d1b;}</style></defs><title>iconnumber-list</title><rect class="cls-1" width="44" height="44"/><rect class="cls-2" x="18.95" y="15.67" width="14.05" height="2.62" rx="0.53"/><rect class="cls-2" x="18.95" y="25.73" width="14.05" height="2.62" rx="0.53"/><path class="cls-2" d="M11.49,19h1.3a.1.1,0,0,0,.1-.1V15.14a.11.11,0,0,0-.1-.11H11.71a.1.1,0,0,1-.11-.1v-.8a.11.11,0,0,1,.09-.1,4.69,4.69,0,0,0,1.6-.6h1.09a.1.1,0,0,1,.11.1v5.4a.09.09,0,0,0,.1.1h1.08a.11.11,0,0,1,.11.11V20.2a.11.11,0,0,1-.11.11H11.49a.11.11,0,0,1-.11-.11V19.13A.11.11,0,0,1,11.49,19Z"/><path class="cls-2" d="M11,29.55a.09.09,0,0,1,0-.08C12.8,27.83,14,26.66,14,25.68a.91.91,0,0,0-1-1,1.66,1.66,0,0,0-1.15.62.11.11,0,0,1-.15,0L11,24.56a.11.11,0,0,1,0-.15,2.84,2.84,0,0,1,2.23-1,2.12,2.12,0,0,1,2.29,2.2c0,1.09-1,2.25-2,3.36a.11.11,0,0,0,.08.18c.3,0,.63-.05.87-.05h1.28a.1.1,0,0,1,.11.1v1.13a.11.11,0,0,1-.11.11H11.14a.11.11,0,0,1-.11-.11Z"/></svg>