<svg xmlns="http://www.w3.org/2000/svg" viewBox="0 0 44 44"><path class="cls-2" d="M12.28,14H23.67a.47.47,0,0,1,.47.47v1.36a.46.46,0,0,1-.46.46H12.28a.47.47,0,0,1-.47-.47V14.46A.46.46,0,0,1,12.28,14Z"/><path class="cls-2" d="M12.28,23.14H23.67a.47.47,0,0,1,.47.47V25a.46.46,0,0,1-.46.46H12.28a.47.47,0,0,1-.47-.47V23.6A.46.46,0,0,1,12.28,23.14Z"/><path class="cls-2" d="M12.28,27.71H31.72a.47.47,0,0,1,.47.47v1.36a.46.46,0,0,1-.46.46H12.28a.47.47,0,0,1-.47-.47V28.18A.46.46,0,0,1,12.28,27.71Z"/><path class="cls-2" d="M12.28,18.57H31.72a.47.47,0,0,1,.47.47v1.36a.46.46,0,0,1-.46.46H12.28a.47.47,0,0,1-.47-.47V19A.46.46,0,0,1,12.28,18.57Z"/></svg>