<svg id="Layer_1" data-name="Layer 1" xmlns="http://www.w3.org/2000/svg" viewBox="0 0 44 44"><defs><style>.cls-1{fill:none;}.cls-2{fill:#1d1d1b;}</style></defs><title>iconexpand</title><rect class="cls-1" width="44" height="44"/><path class="cls-2" d="M30,14.52a.4.4,0,0,0-.41-.4H24.53a.4.4,0,0,0-.28.69L26,16.57s0,0-.05.05l-3,3a.41.41,0,0,0,0,.58l.94.93a.41.41,0,0,0,.58,0l3-3,0-.05,1.78,1.77a.4.4,0,0,0,.69-.29Z"/><path class="cls-2" d="M14,29.71a.41.41,0,0,0,.41.41h5.06a.4.4,0,0,0,.28-.69L18,27.66l.05,0,3-3a.4.4,0,0,0,0-.57l-.94-.94a.41.41,0,0,0-.58,0l-3,3,0,.05-1.78-1.77a.41.41,0,0,0-.69.29Z"/><path class="cls-2" d="M29.59,30.12a.41.41,0,0,0,.41-.41v-5a.41.41,0,0,0-.69-.29l-1.78,1.77,0-.05-3-3a.41.41,0,0,0-.58,0l-.94.94a.4.4,0,0,0,0,.57l3,3,.05,0-1.77,1.77a.4.4,0,0,0,.28.69Z"/><path class="cls-2" d="M14.41,14.12a.4.4,0,0,0-.41.4v5a.4.4,0,0,0,.69.29l1.78-1.77,0,.05,3,3a.41.41,0,0,0,.58,0l.94-.93a.41.41,0,0,0,0-.58l-3-3a.1.1,0,0,1-.05,0l1.77-1.76a.4.4,0,0,0-.28-.69Z"/></svg>