<svg id="Layer_1" data-name="Layer 1" xmlns="http://www.w3.org/2000/svg" viewBox="0 0 44 44"><defs><style>.cls-1{fill:none;}.cls-2{fill:#1d1d1b;}.cls-3{fill:#010101;}</style></defs><title>iconindent-2</title><rect class="cls-1" width="44" height="44"/><path class="cls-2" d="M20.32,18.57H31.72a.47.47,0,0,1,.47.47V20.4a.46.46,0,0,1-.46.46H20.33a.47.47,0,0,1-.47-.47V19A.46.46,0,0,1,20.32,18.57Z"/><path class="cls-2" d="M20.32,23.14H31.72a.47.47,0,0,1,.47.47V25a.46.46,0,0,1-.46.46H20.33a.47.47,0,0,1-.47-.47V23.61A.46.46,0,0,1,20.32,23.14Z"/><path class="cls-2" d="M12.28,27.71H31.72a.47.47,0,0,1,.47.47v1.36a.46.46,0,0,1-.46.46H12.28a.47.47,0,0,1-.47-.47V28.18A.46.46,0,0,1,12.28,27.71Z"/><path class="cls-2" d="M12.28,14H31.72a.47.47,0,0,1,.47.47v1.36a.46.46,0,0,1-.46.46H12.28a.47.47,0,0,1-.47-.47V14.46A.46.46,0,0,1,12.28,14Z"/><path class="cls-3" d="M13.25,17.85,16.8,21.4a.82.82,0,0,1,0,1.16l-3.55,3.56a.82.82,0,0,1-1.4-.58V18.43A.82.82,0,0,1,13.25,17.85Z"/></svg>