<svg xmlns="http://www.w3.org/2000/svg" viewBox="0 0 44 44"><path class="cls-2" d="M29.38,15.32l-1.82-1.83a1.73,1.73,0,0,0-1.2-.49H20.31a1.69,1.69,0,0,0-1.69,1.69v1.69H15.81a1.69,1.69,0,0,0-1.69,1.68V29.31A1.69,1.69,0,0,0,15.81,31h7.88a1.69,1.69,0,0,0,1.69-1.69V27.62h2.81a1.69,1.69,0,0,0,1.69-1.68V16.51A1.66,1.66,0,0,0,29.38,15.32Zm-5.9,14H16a.21.21,0,0,1-.21-.21V18.27a.22.22,0,0,1,.21-.21h2.6v7.88a1.69,1.69,0,0,0,1.69,1.68h3.38V29.1A.21.21,0,0,1,23.48,29.31ZM28,25.94H20.52a.22.22,0,0,1-.21-.21V14.9a.21.21,0,0,1,.21-.21h3.73v3.09a.84.84,0,0,0,.84.84h3.1v7.11A.22.22,0,0,1,28,25.94Zm.21-9H25.94V14.69h.34a.22.22,0,0,1,.15.06l1.7,1.7a.2.2,0,0,1,.06.15Z"/></svg>