<svg id="Layer_1" data-name="Layer 1" xmlns="http://www.w3.org/2000/svg" viewBox="0 0 44 44"><defs><style>.cls-1{fill:none;}.cls-2{fill:#1d1d1b;}</style></defs><title>iconlink</title><rect class="cls-1" width="44" height="44"/><path class="cls-2" d="M14,13.23a3.3,3.3,0,0,0-1,2.36h0A3.3,3.3,0,0,0,14,18l2.74,2.72a3.33,3.33,0,0,0,3.37.81l.24-.08L19,20.07h-.06a1.76,1.76,0,0,1-1.12-.51l-2.72-2.7a1.78,1.78,0,0,1,2.51-2.53l2.73,2.72a1.68,1.68,0,0,1,.52,1.11v.06l1.35,1.34.07-.25a3.32,3.32,0,0,0-.83-3.37l-2.73-2.71A3.34,3.34,0,0,0,14,13.23Z"/><path class="cls-2" d="M23.72,21.09l1.35,1.33h.06a1.74,1.74,0,0,1,1.11.51L29,25.65a1.79,1.79,0,0,1-2.54,2.53h0l-2.73-2.72a1.7,1.7,0,0,1-.52-1.11v-.07L21.82,23l-.07.25a3.35,3.35,0,0,0,.83,3.36l2.73,2.71A3.35,3.35,0,0,0,31,26.9h0a3.3,3.3,0,0,0-1-2.36L27.3,21.83A3.31,3.31,0,0,0,23.93,21Z"/><path class="cls-2" d="M17.93,18.23l7.13,7.1a.25.25,0,0,0,.34,0l.72-.73a.24.24,0,0,0,0-.33L19,17.18a.25.25,0,0,0-.34,0l-.72.72A.24.24,0,0,0,17.93,18.23Z"/></svg>