<svg xmlns="http://www.w3.org/2000/svg" viewBox="0 0 44 44"><path class="cls-2" d="M15.93,14h5a9.66,9.66,0,0,1,4.94,1,3.38,3.38,0,0,1,1.53,3.08,3.85,3.85,0,0,1-.67,2.35,2.68,2.68,0,0,1-1.79,1.11v.11a3.5,3.5,0,0,1,2.2,1.27,4.18,4.18,0,0,1,.67,2.47,4.08,4.08,0,0,1-1.58,3.41A6.85,6.85,0,0,1,21.91,30h-6Zm3.39,6.34h2a3.58,3.58,0,0,0,2-.43,1.58,1.58,0,0,0,.61-1.41,1.42,1.42,0,0,0-.67-1.32,4.41,4.41,0,0,0-2.13-.4H19.32Zm0,2.69V27.2h2.21a3.28,3.28,0,0,0,2.07-.54A2,2,0,0,0,24.27,25c0-1.33-.95-2-2.85-2Z"/></svg>